<?xml version="1.0" encoding="UTF-8" standalone="no"?>
<!DOCTYPE svg PUBLIC "-//W3C//DTD SVG 1.1//EN"
 "http://www.w3.org/Graphics/SVG/1.1/DTD/svg11.dtd">
<!-- Generated by graphviz version 2.47.0 (20210316.0004)
 -->
<!-- Title: dependencies Pages: 1 -->
<svg width="1011pt" height="284pt"
 viewBox="0.00 0.00 1011.00 284.00" xmlns="http://www.w3.org/2000/svg" xmlns:xlink="http://www.w3.org/1999/xlink">
<g id="graph0" class="graph" transform="scale(1 1) rotate(0) translate(4 280)">
<title>dependencies</title>
<polygon fill="white" stroke="transparent" points="-4,4 -4,-280 1007,-280 1007,4 -4,4"/>
<text text-anchor="start" x="480.51" y="-42.4" font-family="Times-12" font-weight="bold" font-size="14.00">Legend</text>
<polygon fill="#ffffb3" stroke="transparent" points="267.5,-10 267.5,-30 287.5,-30 287.5,-10 267.5,-10"/>
<text text-anchor="start" x="291.13" y="-15.4" font-family="Times-12" font-size="14.00"> &#160;Declarations</text>
<polygon fill="#8dd3c7" stroke="transparent" points="380.5,-10 380.5,-30 400.5,-30 400.5,-10 380.5,-10"/>
<text text-anchor="start" x="404.23" y="-15.4" font-family="Times-12" font-size="14.00"> &#160;Module</text>
<polygon fill="#80b1d3" stroke="transparent" points="466.5,-10 466.5,-30 486.5,-30 486.5,-10 466.5,-10"/>
<text text-anchor="start" x="490.28" y="-15.4" font-family="Times-12" font-size="14.00"> &#160;Bootstrap</text>
<polygon fill="#fdb462" stroke="transparent" points="563.5,-10 563.5,-30 583.5,-30 583.5,-10 563.5,-10"/>
<text text-anchor="start" x="587.17" y="-15.4" font-family="Times-12" font-size="14.00"> &#160;Providers</text>
<polygon fill="#fb8072" stroke="transparent" points="659.5,-10 659.5,-30 679.5,-30 679.5,-10 659.5,-10"/>
<text text-anchor="start" x="683.23" y="-15.4" font-family="Times-12" font-size="14.00"> &#160;Exports</text>
<g id="clust1" class="cluster">
<title>cluster_AppModule</title>
<polygon fill="none" stroke="black" stroke-dasharray="1,5" points="8,-70 8,-268 995,-268 995,-70 8,-70"/>
</g>
<g id="clust9" class="cluster">
<title>cluster_AppModule_imports</title>
<polygon fill="none" stroke="black" points="843,-78 843,-130 987,-130 987,-78 843,-78"/>
</g>
<g id="clust11" class="cluster">
<title>cluster_AppModule_bootstrap</title>
<polygon fill="none" stroke="black" points="442,-208 442,-260 566,-260 566,-208 442,-208"/>
</g>
<g id="clust2" class="cluster">
<title>cluster_AppModule_declarations</title>
<polygon fill="none" stroke="black" points="16,-78 16,-130 835,-130 835,-78 16,-78"/>
</g>
<!-- AppComponent -->
<g id="node1" class="node">
<title>AppComponent</title>
<polygon fill="#ffffb3" stroke="black" points="826.94,-122 721.06,-122 721.06,-86 826.94,-86 826.94,-122"/>
<text text-anchor="middle" x="774" y="-99.8" font-family="Times,serif" font-size="14.00">AppComponent</text>
</g>
<!-- AppModule -->
<g id="node7" class="node">
<title>AppModule</title>
<polygon fill="#8dd3c7" stroke="black" points="545.66,-187 542.66,-191 521.66,-191 518.66,-187 462.34,-187 462.34,-151 545.66,-151 545.66,-187"/>
<text text-anchor="middle" x="504" y="-164.8" font-family="Times,serif" font-size="14.00">AppModule</text>
</g>
<!-- AppComponent&#45;&gt;AppModule -->
<g id="edge1" class="edge">
<title>AppComponent&#45;&gt;AppModule</title>
<path fill="none" stroke="black" d="M774,-122.11C774,-141.34 774,-169 774,-169 774,-169 555.89,-169 555.89,-169"/>
<polygon fill="black" stroke="black" points="555.89,-165.5 545.89,-169 555.89,-172.5 555.89,-165.5"/>
</g>
<!-- CapitalizePipe -->
<g id="node2" class="node">
<title>CapitalizePipe</title>
<polygon fill="#ffffb3" stroke="black" points="702.65,-122 605.35,-122 605.35,-86 702.65,-86 702.65,-122"/>
<text text-anchor="middle" x="654" y="-99.8" font-family="Times,serif" font-size="14.00">CapitalizePipe</text>
</g>
<!-- CapitalizePipe&#45;&gt;AppModule -->
<g id="edge2" class="edge">
<title>CapitalizePipe&#45;&gt;AppModule</title>
<path fill="none" stroke="black" d="M654,-122.03C654,-138.4 654,-160 654,-160 654,-160 555.78,-160 555.78,-160"/>
<polygon fill="black" stroke="black" points="555.78,-156.5 545.78,-160 555.78,-163.5 555.78,-156.5"/>
</g>
<!-- ConfirmDialogComponent -->
<g id="node3" class="node">
<title>ConfirmDialogComponent</title>
<polygon fill="#ffffb3" stroke="black" points="587.37,-122 420.63,-122 420.63,-86 587.37,-86 587.37,-122"/>
<text text-anchor="middle" x="504" y="-99.8" font-family="Times,serif" font-size="14.00">ConfirmDialogComponent</text>
</g>
<!-- ConfirmDialogComponent&#45;&gt;AppModule -->
<g id="edge3" class="edge">
<title>ConfirmDialogComponent&#45;&gt;AppModule</title>
<path fill="none" stroke="black" d="M504,-122.11C504,-122.11 504,-140.99 504,-140.99"/>
<polygon fill="black" stroke="black" points="500.5,-140.99 504,-150.99 507.5,-140.99 500.5,-140.99"/>
</g>
<!-- MainComponent -->
<g id="node4" class="node">
<title>MainComponent</title>
<polygon fill="#ffffb3" stroke="black" points="402.38,-122 291.62,-122 291.62,-86 402.38,-86 402.38,-122"/>
<text text-anchor="middle" x="347" y="-99.8" font-family="Times,serif" font-size="14.00">MainComponent</text>
</g>
<!-- MainComponent&#45;&gt;AppModule -->
<g id="edge4" class="edge">
<title>MainComponent&#45;&gt;AppModule</title>
<path fill="none" stroke="black" d="M347,-122.03C347,-138.4 347,-160 347,-160 347,-160 452.34,-160 452.34,-160"/>
<polygon fill="black" stroke="black" points="452.34,-163.5 462.34,-160 452.34,-156.5 452.34,-163.5"/>
</g>
<!-- NoEntitiesComponent -->
<g id="node5" class="node">
<title>NoEntitiesComponent</title>
<polygon fill="#ffffb3" stroke="black" points="273.71,-122 132.29,-122 132.29,-86 273.71,-86 273.71,-122"/>
<text text-anchor="middle" x="203" y="-99.8" font-family="Times,serif" font-size="14.00">NoEntitiesComponent</text>
</g>
<!-- NoEntitiesComponent&#45;&gt;AppModule -->
<g id="edge5" class="edge">
<title>NoEntitiesComponent&#45;&gt;AppModule</title>
<path fill="none" stroke="black" d="M203,-122.11C203,-141.34 203,-169 203,-169 203,-169 452.15,-169 452.15,-169"/>
<polygon fill="black" stroke="black" points="452.15,-172.5 462.15,-169 452.15,-165.5 452.15,-172.5"/>
</g>
<!-- TruncatePipe -->
<g id="node6" class="node">
<title>TruncatePipe</title>
<polygon fill="#ffffb3" stroke="black" points="114.14,-122 23.86,-122 23.86,-86 114.14,-86 114.14,-122"/>
<text text-anchor="middle" x="69" y="-99.8" font-family="Times,serif" font-size="14.00">TruncatePipe</text>
</g>
<!-- TruncatePipe&#45;&gt;AppModule -->
<g id="edge6" class="edge">
<title>TruncatePipe&#45;&gt;AppModule</title>
<path fill="none" stroke="black" d="M69,-122.29C69,-144.21 69,-178 69,-178 69,-178 452.29,-178 452.29,-178"/>
<polygon fill="black" stroke="black" points="452.29,-181.5 462.29,-178 452.29,-174.5 452.29,-181.5"/>
</g>
<!-- AppComponent  -->
<g id="node9" class="node">
<title>AppComponent </title>
<polygon fill="#80b1d3" stroke="black" points="558.44,-252 449.56,-252 449.56,-216 558.44,-216 558.44,-252"/>
<text text-anchor="middle" x="504" y="-229.8" font-family="Times,serif" font-size="14.00">AppComponent </text>
</g>
<!-- AppModule&#45;&gt;AppComponent  -->
<g id="edge8" class="edge">
<title>AppModule&#45;&gt;AppComponent </title>
<path fill="none" stroke="black" stroke-dasharray="1,5" d="M504,-187.11C504,-187.11 504,-205.99 504,-205.99"/>
<polygon fill="black" stroke="black" points="500.5,-205.99 504,-215.99 507.5,-205.99 500.5,-205.99"/>
</g>
<!-- AppRoutingModule -->
<g id="node8" class="node">
<title>AppRoutingModule</title>
<polygon fill="#8dd3c7" stroke="black" points="979.27,-122 976.27,-126 955.27,-126 952.27,-122 850.73,-122 850.73,-86 979.27,-86 979.27,-122"/>
<text text-anchor="middle" x="915" y="-99.8" font-family="Times,serif" font-size="14.00">AppRoutingModule</text>
</g>
<!-- AppRoutingModule&#45;&gt;AppModule -->
<g id="edge7" class="edge">
<title>AppRoutingModule&#45;&gt;AppModule</title>
<path fill="none" stroke="black" d="M915,-122.29C915,-144.21 915,-178 915,-178 915,-178 555.67,-178 555.67,-178"/>
<polygon fill="black" stroke="black" points="555.67,-174.5 545.67,-178 555.67,-181.5 555.67,-174.5"/>
</g>
</g>
</svg>
