<?xml version="1.0" encoding="UTF-8" standalone="no"?>
<!DOCTYPE svg PUBLIC "-//W3C//DTD SVG 1.1//EN"
 "http://www.w3.org/Graphics/SVG/1.1/DTD/svg11.dtd">
<!-- Generated by graphviz version 2.47.0 (20210316.0004)
 -->
<!-- Title: dependencies Pages: 1 -->
<svg width="1011pt" height="284pt"
 viewBox="0.00 0.00 1011.00 284.00" xmlns="http://www.w3.org/2000/svg" xmlns:xlink="http://www.w3.org/1999/xlink">
<g id="graph0" class="graph" transform="scale(1 1) rotate(0) translate(4 280)">
<title>dependencies</title>
<polygon fill="white" stroke="transparent" points="-4,4 -4,-280 1007,-280 1007,4 -4,4"/>
<text text-anchor="start" x="480.51" y="-42.4" font-family="Times-12" font-weight="bold" font-size="14.00">Legend</text>
<polygon fill="#ffffb3" stroke="transparent" points="267.5,-10 267.5,-30 287.5,-30 287.5,-10 267.5,-10"/>
<text text-anchor="start" x="291.13" y="-15.4" font-family="Times-12" font-size="14.00"> &#160;Declarations</text>
<polygon fill="#8dd3c7" stroke="transparent" points="380.5,-10 380.5,-30 400.5,-30 400.5,-10 380.5,-10"/>
<text text-anchor="start" x="404.23" y="-15.4" font-family="Times-12" font-size="14.00"> &#160;Module</text>
<polygon fill="#80b1d3" stroke="transparent" points="466.5,-10 466.5,-30 486.5,-30 486.5,-10 466.5,-10"/>
<text text-anchor="start" x="490.28" y="-15.4" font-family="Times-12" font-size="14.00"> &#160;Bootstrap</text>
<polygon fill="#fdb462" stroke="transparent" points="563.5,-10 563.5,-30 583.5,-30 583.5,-10 563.5,-10"/>
<text text-anchor="start" x="587.17" y="-15.4" font-family="Times-12" font-size="14.00"> &#160;Providers</text>
<polygon fill="#fb8072" stroke="transparent" points="659.5,-10 659.5,-30 679.5,-30 679.5,-10 659.5,-10"/>
<text text-anchor="start" x="683.23" y="-15.4" font-family="Times-12" font-size="14.00"> &#160;Exports</text>
<g id="clust1" class="cluster">
<title>cluster_AppModule</title>
<polygon fill="none" stroke="black" stroke-dasharray="1,5" points="8,-70 8,-268 995,-268 995,-70 8,-70"/>
</g>
<g id="clust2" class="cluster">
<title>cluster_AppModule_declarations</title>
<polygon fill="none" stroke="black" points="168,-78 168,-130 987,-130 987,-78 168,-78"/>
</g>
<g id="clust9" class="cluster">
<title>cluster_AppModule_imports</title>
<polygon fill="none" stroke="black" points="16,-78 16,-130 160,-130 160,-78 16,-78"/>
</g>
<g id="clust11" class="cluster">
<title>cluster_AppModule_bootstrap</title>
<polygon fill="none" stroke="black" points="437,-208 437,-260 561,-260 561,-208 437,-208"/>
</g>
<!-- AppComponent -->
<g id="node1" class="node">
<title>AppComponent</title>
<polygon fill="#ffffb3" stroke="black" points="978.94,-122 873.06,-122 873.06,-86 978.94,-86 978.94,-122"/>
<text text-anchor="middle" x="926" y="-99.8" font-family="Times,serif" font-size="14.00">AppComponent</text>
</g>
<!-- AppModule -->
<g id="node7" class="node">
<title>AppModule</title>
<polygon fill="#8dd3c7" stroke="black" points="540.66,-187 537.66,-191 516.66,-191 513.66,-187 457.34,-187 457.34,-151 540.66,-151 540.66,-187"/>
<text text-anchor="middle" x="499" y="-164.8" font-family="Times,serif" font-size="14.00">AppModule</text>
</g>
<!-- AppComponent&#45;&gt;AppModule -->
<g id="edge1" class="edge">
<title>AppComponent&#45;&gt;AppModule</title>
<path fill="none" stroke="black" d="M926,-122.29C926,-144.21 926,-178 926,-178 926,-178 550.72,-178 550.72,-178"/>
<polygon fill="black" stroke="black" points="550.72,-174.5 540.72,-178 550.72,-181.5 550.72,-174.5"/>
</g>
<!-- CapitalizePipe -->
<g id="node2" class="node">
<title>CapitalizePipe</title>
<polygon fill="#ffffb3" stroke="black" points="854.65,-122 757.35,-122 757.35,-86 854.65,-86 854.65,-122"/>
<text text-anchor="middle" x="806" y="-99.8" font-family="Times,serif" font-size="14.00">CapitalizePipe</text>
</g>
<!-- CapitalizePipe&#45;&gt;AppModule -->
<g id="edge2" class="edge">
<title>CapitalizePipe&#45;&gt;AppModule</title>
<path fill="none" stroke="black" d="M806,-122.11C806,-141.34 806,-169 806,-169 806,-169 550.72,-169 550.72,-169"/>
<polygon fill="black" stroke="black" points="550.72,-165.5 540.72,-169 550.72,-172.5 550.72,-165.5"/>
</g>
<!-- ConfirmDialogComponent -->
<g id="node3" class="node">
<title>ConfirmDialogComponent</title>
<polygon fill="#ffffb3" stroke="black" points="739.37,-122 572.63,-122 572.63,-86 739.37,-86 739.37,-122"/>
<text text-anchor="middle" x="656" y="-99.8" font-family="Times,serif" font-size="14.00">ConfirmDialogComponent</text>
</g>
<!-- ConfirmDialogComponent&#45;&gt;AppModule -->
<g id="edge3" class="edge">
<title>ConfirmDialogComponent&#45;&gt;AppModule</title>
<path fill="none" stroke="black" d="M656,-122.03C656,-138.4 656,-160 656,-160 656,-160 550.66,-160 550.66,-160"/>
<polygon fill="black" stroke="black" points="550.66,-156.5 540.66,-160 550.66,-163.5 550.66,-156.5"/>
</g>
<!-- MainComponent -->
<g id="node4" class="node">
<title>MainComponent</title>
<polygon fill="#ffffb3" stroke="black" points="554.38,-122 443.62,-122 443.62,-86 554.38,-86 554.38,-122"/>
<text text-anchor="middle" x="499" y="-99.8" font-family="Times,serif" font-size="14.00">MainComponent</text>
</g>
<!-- MainComponent&#45;&gt;AppModule -->
<g id="edge4" class="edge">
<title>MainComponent&#45;&gt;AppModule</title>
<path fill="none" stroke="black" d="M499,-122.11C499,-122.11 499,-140.99 499,-140.99"/>
<polygon fill="black" stroke="black" points="495.5,-140.99 499,-150.99 502.5,-140.99 495.5,-140.99"/>
</g>
<!-- NoEntitiesComponent -->
<g id="node5" class="node">
<title>NoEntitiesComponent</title>
<polygon fill="#ffffb3" stroke="black" points="425.71,-122 284.29,-122 284.29,-86 425.71,-86 425.71,-122"/>
<text text-anchor="middle" x="355" y="-99.8" font-family="Times,serif" font-size="14.00">NoEntitiesComponent</text>
</g>
<!-- NoEntitiesComponent&#45;&gt;AppModule -->
<g id="edge5" class="edge">
<title>NoEntitiesComponent&#45;&gt;AppModule</title>
<path fill="none" stroke="black" d="M355,-122.03C355,-138.4 355,-160 355,-160 355,-160 446.96,-160 446.96,-160"/>
<polygon fill="black" stroke="black" points="446.96,-163.5 456.96,-160 446.96,-156.5 446.96,-163.5"/>
</g>
<!-- TruncatePipe -->
<g id="node6" class="node">
<title>TruncatePipe</title>
<polygon fill="#ffffb3" stroke="black" points="266.14,-122 175.86,-122 175.86,-86 266.14,-86 266.14,-122"/>
<text text-anchor="middle" x="221" y="-99.8" font-family="Times,serif" font-size="14.00">TruncatePipe</text>
</g>
<!-- TruncatePipe&#45;&gt;AppModule -->
<g id="edge6" class="edge">
<title>TruncatePipe&#45;&gt;AppModule</title>
<path fill="none" stroke="black" d="M221,-122.11C221,-141.34 221,-169 221,-169 221,-169 447.08,-169 447.08,-169"/>
<polygon fill="black" stroke="black" points="447.08,-172.5 457.08,-169 447.08,-165.5 447.08,-172.5"/>
</g>
<!-- AppComponent  -->
<g id="node9" class="node">
<title>AppComponent </title>
<polygon fill="#80b1d3" stroke="black" points="553.44,-252 444.56,-252 444.56,-216 553.44,-216 553.44,-252"/>
<text text-anchor="middle" x="499" y="-229.8" font-family="Times,serif" font-size="14.00">AppComponent </text>
</g>
<!-- AppModule&#45;&gt;AppComponent  -->
<g id="edge8" class="edge">
<title>AppModule&#45;&gt;AppComponent </title>
<path fill="none" stroke="black" stroke-dasharray="1,5" d="M499,-187.11C499,-187.11 499,-205.99 499,-205.99"/>
<polygon fill="black" stroke="black" points="495.5,-205.99 499,-215.99 502.5,-205.99 495.5,-205.99"/>
</g>
<!-- AppRoutingModule -->
<g id="node8" class="node">
<title>AppRoutingModule</title>
<polygon fill="#8dd3c7" stroke="black" points="152.27,-122 149.27,-126 128.27,-126 125.27,-122 23.73,-122 23.73,-86 152.27,-86 152.27,-122"/>
<text text-anchor="middle" x="88" y="-99.8" font-family="Times,serif" font-size="14.00">AppRoutingModule</text>
</g>
<!-- AppRoutingModule&#45;&gt;AppModule -->
<g id="edge7" class="edge">
<title>AppRoutingModule&#45;&gt;AppModule</title>
<path fill="none" stroke="black" d="M88,-122.29C88,-144.21 88,-178 88,-178 88,-178 447.33,-178 447.33,-178"/>
<polygon fill="black" stroke="black" points="447.33,-181.5 457.33,-178 447.33,-174.5 447.33,-181.5"/>
</g>
</g>
</svg>
